<?xml version="1.0" encoding="UTF-8"?>
<svg width="57px" height="46px" viewBox="0 0 57 46" version="1.1" xmlns="http://www.w3.org/2000/svg" xmlns:xlink="http://www.w3.org/1999/xlink">
    <!-- Generator: Sketch 52.2 (67145) - http://www.bohemiancoding.com/sketch -->
    <title>twitter - FontAwesome</title>
    <desc>Created with Sketch.</desc>
    <g id="Desktop" stroke="none" stroke-width="1" fill="none" fill-rule="evenodd">
        <g id="signin" transform="translate(-692.000000, -426.000000)" fill="#4BB0EE">
            <g id="Group-2" transform="translate(565.000000, 417.000000)">
                <path d="M183.857212,14.7142377 C182.285781,16.9999547 180.321493,19.0356714 178.071491,20.6785305 C178.107205,21.1785311 178.107205,21.6785317 178.107205,22.1785323 C178.107205,37.4285505 166.500048,55 145.285737,55 C138.750015,55 132.678579,53.1071406 127.57143,49.8214224 C128.500003,49.9285654 129.392861,49.9642797 130.357148,49.9642797 C135.750012,49.9642797 140.714303,48.142849 144.678594,45.0357024 C139.607159,44.9285594 135.357154,41.6071269 133.892867,37.0356929 C134.607153,37.1428359 135.32144,37.2142645 136.071441,37.2142645 C137.107156,37.2142645 138.142872,37.0714072 139.107158,36.8214069 C133.821438,35.7499771 129.857147,31.1071144 129.857147,25.4999648 C129.857147,25.4642505 129.857147,25.3928218 129.857147,25.3571075 C131.392864,26.2142514 133.17858,26.7499663 135.071439,26.821395 C131.964293,24.7499639 129.928576,21.2142454 129.928576,17.2142407 C129.928576,15.071381 130.500005,13.1070929 131.500007,11.3928052 C137.178585,18.3928135 145.714309,22.9642475 155.285749,23.4642481 C155.107178,22.6071042 155.000035,21.714246 155.000035,20.8213878 C155.000035,14.4642374 160.142898,9.28565979 166.535763,9.28565979 C169.857195,9.28565979 172.857199,10.6785186 174.964344,12.9285213 C177.57149,12.4285207 180.071493,11.4642338 182.285781,10.1428037 C181.428638,12.8213783 179.607207,15.071381 177.214347,16.4999541 C179.535778,16.2499538 181.785781,15.6070959 183.857212,14.7142377 Z" id="twitter---FontAwesome"></path>
            </g>
        </g>
    </g>
</svg>